# xmcd
#
# Track frame offsets:
#	150
#	12729
#	27598
#	40841
#	51300
#	61365
#	76056
#	93111
#	106242
#	124340
#	137557
#	148570
#	164162
#	178192
#	192785
#	214623
#	229590
#
# Disc length: 3222 seconds
#
# Revision: 0
# Processed by: cddbd v1.5.2PL0 Copyright (c) Steve Scherf et al.
# Submitted via: EasyCDDAExtractor 11.0.2.1
#
DISCID=ee0c9411
DTITLE=Pierre Perret - Le plaisir des dieux
DYEAR=2007
DGENRE=Chansons paillardes
TTITLE0=La Pute au Grand Coeur
TTITLE1=Les Moines de St Bernardin
TTITLE2=Le père Dupanloup
TTITLE3=Ô mon Berger Fidèle
TTITLE4=Les trois orfèvres
TTITLE5=La carotte
TTITLE6=En revenant du piémont
TTITLE7=Ô ma mère
TTITLE8=Pot pourri
TTITLE9=Le plaisir des dieux
TTITLE10=Jean gilles
TTITLE11=Les poils du cul
TTITLE12=La patrouille
TTITLE13=Adieu fais toi putain
TTITLE14=Le grenadier de flandre
TTITLE15=Les filles de camaret
TTITLE16=Le petit fils d'oedipe
EXTD=
EXTT0=
EXTT1=
EXTT2=
EXTT3=
EXTT4=
EXTT5=
EXTT6=
EXTT7=
EXTT8=
EXTT9=
EXTT10=
EXTT11=
EXTT12=
EXTT13=
EXTT14=
EXTT15=
EXTT16=
PLAYORDER=
